#!OML:ASF H:\Pregnant\Project 1\Capture day 1\Session 1\femalepreg.ASF
:FULLY-SPECIFIED
:DEGREES
720
root 2.32432 4.1357 27.0347 52.3889 -31.4063 317.084
lowerback 21.5878 11.9225 4.4622
upperback 4.6473 16.5284 4.24318
thorax -6.6374 7.73936 -2.18057
lowerneck -24.5743 -10.0669 -4.7912
upperneck 8.24281 -16.7158 25.5866
head 9.67298 -5.8826 6.84057
rclavicle 2.38542e-014 7.83212e-014
rhumerus 10.661 13.5353 -61.9399
rradius 32.0892
rwrist 7.29038
rhand -57.8699 5.38074
rfingers 7.12502
rthumb -30.1217 337.816
lclavicle 2.38542e-014 7.83212e-014
lhumerus -0.301424 -11.7825 71.7386
lradius 36.4345
lwrist 49.6281
lhand -54.4113 102.935
lfingers 7.12502
lthumb -26.817 -434.817
rfemur -89.4757 -28.2429 -4.48657
rtibia 140.231
rfoot -6.28965 48.8406
rtoes -29.6204
lfemur -85.692 -60.8743 -89.3092
ltibia 150.734
lfoot 56.4007 -1.99015
ltoes -61.5846
721
root 2.28874 4.1634 27.0211 52.362 -31.2885 317.367
lowerback 21.6345 11.8584 4.34317
upperback 4.67949 16.4075 4.1526
thorax -6.63561 7.6823 -2.19153
lowerneck -24.5163 -10.1131 -4.80069
upperneck 8.14959 -16.7653 25.6372
head 9.64668 -5.91585 6.84784
rclavicle -6.12257e-014 1.15295e-014
rhumerus 10.8443 12.8509 -62.5028
rradius 31.855
rwrist 7.60628
rhand -58.1421 6.01379
rfingers 7.12502
rthumb -30.3814 338.496
lclavicle -6.12257e-014 1.15295e-014
lhumerus -0.00409456 -11.5165 71.4519
lradius 36.2352
lwrist 49.5045
lhand -54.5122 102.645
lfingers 7.12502
lthumb -26.9135 -434.541
rfemur -89.5521 -28.6093 -4.15096
rtibia 140.437
rfoot -8.42292 48.2467
rtoes -30.4998
lfemur -85.6712 -61.4396 -89.3683
ltibia 151.015
lfoot 56.5273 -1.05371
ltoes -61.4939
722
root 2.25236 4.19241 27.0079 52.325 -31.1526 317.661
lowerback 21.6888 11.7822 4.23026
upperback 4.71073 16.2722 4.05882
thorax -6.63666 7.61805 -2.20658
lowerneck -24.4514 -10.1568 -4.80716
upperneck 8.05083 -16.8144 25.7023
head 9.61912 -5.9488 6.85998
rclavicle 1.21656e-013 1.59028e-014
rhumerus 10.9985 12.1276 -63.0888
rradius 31.7002
rwrist 7.96574
rhand -58.3236 6.6884
rfingers 7.12502
rthumb -30.5545 339.203
lclavicle 1.21656e-013 1.59028e-014
lhumerus 0.297909 -11.2491 71.1441
lradius 36.0229
lwrist 49.3922
lhand -54.6154 102.353
lfingers 7.12502
lthumb -27.0122 -434.265
rfemur -89.5982 -29.0041 -3.78909
rtibia 140.647
rfoot -10.7936 47.3951
rtoes -31.4601
lfemur -85.6428 -61.9765 -89.4022
ltibia 151.297
lfoot 56.6167 -0.12595
ltoes -61.3963
723
root 2.21522 4.22277 26.995 52.2759 -30.997 317.969
lowerback 21.7513 11.6934 4.12205
upperback 4.74069 16.1219 3.96265
thorax -6.64193 7.54622 -2.22415
lowerneck -24.3808 -10.1979 -4.8104
upperneck 7.95024 -16.8642 25.7842
head 9.59227 -5.98145 6.87759
rclavicle 7.95139e-015 -9.58142e-014
rhumerus 11.1347 11.4139 -63.6822
rradius 31.6024
rwrist 8.32368
rhand -58.4285 7.3659
rfingers 7.12502
rthumb -30.6545 339.899
lclavicle 7.95139e-015 -9.58142e-014
lhumerus 0.603927 -10.9798 70.8168
lradius 35.7964
lwrist 49.2889
lhand -54.721 102.061
lfingers 7.12502
lthumb -27.1133 -433.988
rfemur -89.6067 -29.4332 -3.40181
rtibia 140.863
rfoot -13.2796 46.2737
rtoes -32.3956
lfemur -85.6066 -62.4825 -89.4084
ltibia 151.579
lfoot 56.6675 0.788799
ltoes -61.2914
724
root 2.17739 4.25463 26.9826 52.2097 -30.8205 318.291
lowerback 21.8282 11.5926 4.01749
upperback 4.76986 15.9573 3.86626
thorax -6.65491 7.46696 -2.24284
lowerneck -24.3065 -10.2369 -4.81053
upperneck 7.85195 -16.9164 25.8831
head 9.56832 -6.01399 6.90055
rclavicle 8.74653e-015 -4.45278e-014
rhumerus 11.2656 10.7445 -64.2725
rradius 31.5392
rwrist 8.65204
rhand -58.4793 8.01533
rfingers 7.12502
rthumb -30.703 340.558
lclavicle 8.74653e-015 -4.45278e-014
lhumerus 0.912566 -10.7067 70.4734
lradius 35.5558
lwrist 49.191
lhand -54.8283 101.768
lfingers 7.12502
lthumb -27.2159 -433.711
rfemur -89.5644 -29.8912 -2.99126
rtibia 141.08
rfoot -15.7163 44.9121
rtoes -33.198
lfemur -85.5536 -62.9546 -89.388
ltibia 151.861
lfoot 56.6749 1.69025
ltoes -61.1784
725
root 2.139 4.28823 26.9707 52.1201 -30.624 318.623
lowerback 21.9296 11.4819 3.91508
upperback 4.79956 15.7814 3.77266
thorax -6.68062 7.38124 -2.2614
lowerneck -24.2319 -10.2743 -4.80807
upperneck 7.75979 -16.9723 25.9977
head 9.54928 -6.04666 6.92821
rclavicle -9.06458e-014 2.18663e-014
rhumerus 11.4028 10.1379 -64.8541
rradius 31.49
rwrist 8.94234
rhand -58.5007 8.61034
rfingers 7.12502
rthumb -30.7234 341.157
lclavicle -9.06458e-014 2.18663e-014
lhumerus 1.22195 -10.4276 70.119
lradius 35.3024
lwrist 49.094
lhand -54.9369 101.476
lfingers 7.12502
lthumb -27.3198 -433.436
rfemur -89.4536 -30.3595 -2.5613
rtibia 141.293
rfoot -17.9552 43.3787
rtoes -33.8057
lfemur -85.4667 -63.3897 -89.3458
ltibia 152.139
lfoot 56.6308 2.58454
ltoes -61.0567
